<?xml version="1.0" encoding="UTF-8"?>
<!DOCTYPE svg PUBLIC "-//W3C//DTD SVG 1.1//EN" "http://www.w3.org/Graphics/SVG/1.1/DTD/svg11.dtd">
<svg xmlns="http://www.w3.org/2000/svg" version="1.1" width="512px" height="512px" style="shape-rendering:geometricPrecision; text-rendering:geometricPrecision; image-rendering:optimizeQuality; fill-rule:evenodd; clip-rule:evenodd" xmlns:xlink="http://www.w3.org/1999/xlink">
<g><path style="opacity:0.994" fill="#ec3b3b" d="M 114.5,-0.5 C 178.833,-0.5 243.167,-0.5 307.5,-0.5C 321.783,3.95715 330.283,13.6238 333,28.5C 333.5,104.166 333.667,179.833 333.5,255.5C 332.668,272.328 332.168,289.328 332,306.5C 327.65,321.349 318.15,331.015 303.5,335.5C 296.5,335.5 289.5,335.5 282.5,335.5C 282.963,309.449 282.463,283.449 281,257.5C 276.505,243.171 267.005,234.171 252.5,230.5C 245.963,229.226 239.296,229.226 232.5,230.5C 212.323,226.809 197.49,234.142 188,252.5C 186.263,256.661 185.263,260.995 185,265.5C 184.5,289.164 184.333,312.831 184.5,336.5C 160.799,336.927 137.132,336.427 113.5,335C 101.667,331.167 93.8333,323.333 90,311.5C 88.3479,217.53 88.0146,123.53 89,29.5C 91.2587,14.0827 99.7587,4.08274 114.5,-0.5 Z"/></g>
<g><path style="opacity:1" fill="#d62a28" d="M 232.5,230.5 C 218.646,235.515 209.813,245.181 206,259.5C 205.824,285.239 205.324,310.906 204.5,336.5C 197.833,336.5 191.167,336.5 184.5,336.5C 184.333,312.831 184.5,289.164 185,265.5C 185.263,260.995 186.263,256.661 188,252.5C 197.49,234.142 212.323,226.809 232.5,230.5 Z"/></g>
<g><path style="opacity:1" fill="#e2be91" d="M 252.5,230.5 C 237.362,235.138 227.862,245.138 224,260.5C 223.333,302.167 223.333,343.833 224,385.5C 225.715,400.311 230.048,414.311 237,427.5C 248.987,441.809 256.987,458.142 261,476.5C 261.167,481 261.333,485.5 261.5,490C 261.711,496.414 261.045,502.581 259.5,508.5C 256.336,490.839 249.836,474.506 240,459.5C 230.546,446.706 221.879,433.373 214,419.5C 208.798,407.357 205.798,394.691 205,381.5C 204.5,366.504 204.333,351.504 204.5,336.5C 205.324,310.906 205.824,285.239 206,259.5C 209.813,245.181 218.646,235.515 232.5,230.5C 239.296,229.226 245.963,229.226 252.5,230.5 Z"/></g>
<g><path style="opacity:0.997" fill="#fedcaf" d="M 252.5,230.5 C 267.005,234.171 276.505,243.171 281,257.5C 282.463,283.449 282.963,309.449 282.5,335.5C 289.5,335.5 296.5,335.5 303.5,335.5C 313.5,335.5 323.5,335.5 333.5,335.5C 337.541,322.084 343.708,309.751 352,298.5C 360.935,287.345 372.435,282.011 386.5,282.5C 408.985,290.826 420.985,306.993 422.5,331C 413.313,391.288 403.646,451.455 393.5,511.5C 348.833,511.5 304.167,511.5 259.5,511.5C 259.5,510.5 259.5,509.5 259.5,508.5C 261.045,502.581 261.711,496.414 261.5,490C 261.333,485.5 261.167,481 261,476.5C 256.987,458.142 248.987,441.809 237,427.5C 230.048,414.311 225.715,400.311 224,385.5C 223.333,343.833 223.333,302.167 224,260.5C 227.862,245.138 237.362,235.138 252.5,230.5 Z"/></g>
<g><path style="opacity:1" fill="#e2bc90" d="M 333.5,255.5 C 351.357,264.261 369.024,273.261 386.5,282.5C 372.435,282.011 360.935,287.345 352,298.5C 343.708,309.751 337.541,322.084 333.5,335.5C 323.5,335.5 313.5,335.5 303.5,335.5C 318.15,331.015 327.65,321.349 332,306.5C 332.168,289.328 332.668,272.328 333.5,255.5 Z"/></g>
</svg>
