<svg version="1.1" xmlns="http://www.w3.org/2000/svg" xmlns:xlink="http://www.w3.org/1999/xlink" width="512.000000pt" height="298.000000pt" viewBox="0,0,256,149"><g fill="#ffffff" fill-rule="nonzero" stroke="none" stroke-width="1" stroke-linecap="butt" stroke-linejoin="miter" stroke-miterlimit="10" stroke-dasharray="" stroke-dashoffset="0" font-family="none" font-weight="none" font-size="none" text-anchor="none" style="mix-blend-mode: normal"><g transform="translate(-4.325,3.02) scale(0.5,0.5)"><g transform="translate(0,298) scale(0.1,-0.1)"><path d="M1796,2971c-3,-5 -14,-7 -25,-4c-10,2 -25,-3 -34,-11c-10,-10 -18,-12 -22,-6c-4,6 -11,8 -16,4c-5,-3 -7,-10 -4,-15c4,-5 -3,-5 -18,0c-30,11 -41,3 -45,-30c-2,-27 10,-38 53,-48c3,0 0,-7 -7,-15c-11,-12 -14,-12 -21,0c-12,20 -27,7 -27,-22c0,-17 -8,-27 -25,-34c-24,-9 -35,-30 -15,-30c5,0 6,-8 3,-17c-4,-11 -8,-12 -11,-5c-5,17 -22,15 -22,-2c0,-7 -10,-16 -22,-20c-29,-7 -13,-26 28,-32c56,-9 69,-9 69,2c0,12 22,34 50,50c11,6 20,19 20,29c0,10 10,21 23,26c12,5 22,6 22,4c0,-2 16,7 36,20c19,13 44,27 55,30c11,4 17,11 14,16c-4,5 2,9 11,9c30,0 55,30 43,52c-5,10 -14,16 -20,13c-5,-4 -9,-2 -9,4c0,8 -29,23 -50,26c-3,0 -10,4 -17,8c-6,4 -14,3 -17,-2zM1735,2860c3,-6 -4,-10 -17,-10c-18,0 -20,2 -8,10c19,12 18,12 25,0z"></path><path d="M1593,2924c7,-8 -17,-34 -32,-34c-6,0 -10,-3 -9,-7c0,-5 -3,-17 -7,-27c-6,-13 -4,-21 4,-24c8,-3 7,-8 -5,-17c-19,-13 -13,-45 8,-41c24,3 69,39 65,50c-2,6 0,19 4,28c6,10 5,19 -1,23c-5,3 -10,17 -10,31c0,13 -5,24 -12,24c-6,0 -9,-3 -5,-6z"></path><path d="M2124,2919c-3,-6 -15,-9 -25,-6c-12,3 -23,-2 -30,-14c-5,-11 -15,-16 -21,-13c-8,5 -9,-3 -5,-24c8,-38 -8,-44 -17,-7c-7,27 -26,34 -26,10c0,-22 -21,-18 -27,4c-3,11 -10,18 -16,16c-7,-2 -24,-6 -39,-9c-16,-4 -28,-13 -28,-21c0,-8 -8,-15 -18,-15c-26,0 -67,-31 -53,-40c23,-14 -1,-37 -47,-46c-53,-10 -62,-31 -22,-51l25,-13h-27c-22,0 -27,-4 -25,-20c4,-26 9,-30 46,-35c46,-5 57,-19 59,-67c1,-23 4,-50 7,-59c3,-10 1,-20 -5,-24c-15,-9 -12,-35 4,-29c8,3 15,-3 18,-14c4,-14 0,-18 -16,-18c-12,1 -22,-6 -24,-16c-2,-11 3,-18 13,-18c9,0 13,5 10,10c-7,11 8,14 18,4c9,-10 -15,-54 -30,-54c-7,0 -13,-3 -14,-7c0,-5 -2,-17 -4,-28c-6,-31 5,-66 19,-58c8,5 8,3 0,-8c-16,-21 2,-80 27,-86c10,-3 19,-9 19,-14c0,-5 6,-9 14,-9c12,0 30,34 27,53c-1,4 3,7 8,7c10,0 27,39 23,52c-2,8 37,23 68,27c6,0 20,12 31,25c12,14 38,27 58,31c40,7 97,44 71,46c-8,1 -19,1 -24,0c-5,-1 -4,4 2,12c7,8 11,16 9,18c-1,2 3,-1 9,-8c30,-34 45,-3 18,35c-9,13 -13,26 -10,29c3,4 6,1 6,-6c0,-7 5,-9 12,-5c7,5 5,12 -8,22c-18,14 -18,14 -1,8c24,-8 44,4 26,15c-11,7 -10,9 5,9c13,0 17,5 13,19c-4,15 -1,18 12,13c14,-5 14,-3 -2,21c-19,30 -15,50 8,40c8,-3 15,0 15,6c0,6 -4,11 -9,11c-14,0 -1,62 21,98c11,17 16,32 11,33c-4,0 2,4 15,9c12,5 25,17 29,26c10,27 -18,34 -58,13c-40,-20 -67,-26 -36,-8c9,5 17,17 17,26c0,13 -3,14 -12,5c-7,-7 -19,-12 -27,-12c-13,0 -14,2 -2,9c11,7 10,10 -5,14c-13,3 -9,5 11,6c43,2 60,14 41,30c-8,7 -21,9 -27,5c-8,-4 -9,-3 -5,4c4,8 0,12 -11,12c-15,0 -15,2 -3,10c11,7 9,11 -13,19c-36,14 -64,14 -73,0z"></path><path d="M3284,2906c-3,-8 -2,-21 2,-28c5,-7 9,-16 9,-21c0,-12 55,-37 81,-37c28,0 30,7 9,37c-16,23 -34,24 -61,3c-16,-12 -17,-12 -6,0c18,20 15,38 -8,50c-16,9 -22,8 -26,-4z"></path><path d="M1433,2856c3,-7 0,-19 -6,-25c-8,-8 -8,-11 0,-11c7,0 13,-10 15,-22l3,-23l14,23c16,29 7,72 -15,72c-10,0 -14,-6 -11,-14z"></path><path d="M1340,2850c19,-13 30,-13 30,0c0,6 -10,10 -22,10c-19,0 -20,-2 -8,-10z"></path><path d="M3417,2827c8,-42 8,-42 33,-19c22,20 16,31 -22,45c-15,5 -16,1 -11,-26z"></path><path d="M3864,2849c-2,-4 5,-18 15,-30c19,-23 21,-23 48,-7c32,19 43,48 18,48c-12,0 -15,-5 -11,-17c5,-16 5,-16 -6,-2c-13,15 -56,21 -64,8z"></path><path d="M3990,2850c20,-13 40,-13 40,0c0,6 -12,10 -27,10c-22,0 -25,-2 -13,-10z"></path><path d="M1311,2819c8,-16 13,-18 25,-8c17,14 14,18 -15,24c-18,3 -20,1 -10,-16z"></path><path d="M1200,2813c-30,-13 -32,-16 -16,-25c12,-7 21,-7 28,0c6,6 16,8 23,5c8,-2 18,5 25,16c9,18 8,21 -7,20c-10,0 -34,-7 -53,-16z"></path><path d="M2990,2815c0,-8 4,-15 10,-15c5,0 7,7 4,15c-4,8 -8,15 -10,15c-2,0 -4,-7 -4,-15z"></path><path d="M1480,2800c0,-13 5,-20 13,-17c6,2 12,10 12,17c0,7 -6,15 -12,18c-8,2 -13,-5 -13,-18z"></path><path d="M2945,2810c4,-6 11,-8 16,-5c14,9 11,15 -7,15c-8,0 -12,-5 -9,-10z"></path><path d="M2853,2787c-4,-6 0,-8 10,-4c10,4 17,0 19,-11c3,-15 6,-14 16,4c10,19 9,22 -13,22c-14,0 -28,-5 -32,-11z"></path><path d="M2967,2793c-4,-3 -7,-11 -7,-17c0,-6 5,-5 12,2c6,6 9,14 7,17c-3,3 -9,2 -12,-2z"></path><path d="M3473,2756c6,-39 -13,-63 -45,-58c-10,2 -18,-1 -18,-7c0,-6 -12,-22 -26,-36c-25,-25 -25,-27 -9,-45c15,-17 15,-19 -19,-30c-32,-10 -34,-13 -23,-31c6,-10 20,-22 29,-25c21,-6 45,-44 28,-44c-5,0 -10,6 -10,14c0,8 -11,17 -24,20c-13,3 -32,9 -43,13c-16,6 -16,5 -4,-10c9,-12 10,-17 2,-17c-7,0 -9,-4 -6,-10c3,-5 2,-10 -4,-10c-5,0 -11,6 -14,13c-2,6 -8,9 -12,5c-12,-11 27,-89 42,-84c17,7 43,-3 43,-16c0,-6 -6,-6 -14,1c-16,13 -32,-2 -21,-20c11,-18 -4,-59 -22,-59c-13,0 -14,3 -5,12c18,18 15,35 -18,105c-16,34 -30,68 -30,73c0,6 -9,10 -20,10c-13,0 -20,-7 -20,-19c0,-11 -2,-26 -5,-33c-3,-8 6,-31 19,-51c27,-40 26,-43 -7,-25c-12,6 -40,15 -62,19c-33,6 -37,5 -22,-6c9,-6 17,-21 17,-31c0,-13 -3,-15 -8,-7c-6,10 -14,9 -34,-1c-18,-10 -29,-11 -36,-4c-8,8 -21,1 -42,-21c-35,-34 -52,-40 -48,-15c2,10 -3,19 -11,22c-11,4 -13,-2 -8,-26c5,-24 2,-31 -13,-35c-12,-3 -20,-14 -20,-27c0,-17 -4,-20 -20,-15c-21,7 -28,-10 -7,-18c7,-3 5,-6 -6,-6c-10,-1 -23,11 -30,27c-6,15 -19,33 -27,40c-13,11 -11,11 8,2c32,-16 76,-9 80,12c4,21 -51,58 -85,58c-13,0 -23,4 -23,9c0,5 -9,7 -20,4c-16,-4 -19,-2 -13,13c5,13 3,16 -10,11c-8,-3 -18,-1 -21,6c-3,8 -5,8 -5,-2c-1,-11 -4,-11 -16,-1c-12,10 -16,9 -21,-3c-3,-9 -21,-21 -40,-27c-19,-6 -34,-18 -34,-26c0,-8 -9,-24 -20,-36c-10,-11 -22,-33 -25,-49c-4,-15 -24,-44 -46,-64c-35,-32 -39,-39 -36,-77c4,-47 19,-58 46,-34c18,16 20,15 37,-27c16,-40 20,-43 41,-33c13,6 21,16 19,22c-3,6 2,24 10,39c10,20 11,32 4,39c-16,16 -12,51 10,71c11,10 20,27 20,37c0,20 23,34 40,23c7,-4 2,-18 -14,-39c-17,-23 -23,-40 -19,-57c9,-33 22,-39 67,-32c31,5 38,3 34,-8c-3,-8 -13,-13 -24,-12c-30,4 -52,-13 -36,-29c18,-18 14,-30 -8,-23c-15,5 -20,2 -20,-12c0,-11 5,-24 12,-31c9,-9 8,-12 -7,-13c-11,0 -33,-3 -50,-5c-34,-5 -75,-7 -91,-5c-6,0 -10,16 -9,36c2,30 0,34 -12,24c-8,-7 -13,-25 -11,-43c3,-26 -1,-32 -20,-34c-13,-2 -26,-11 -30,-20c-10,-26 -54,-63 -69,-57c-8,2 -11,0 -8,-5c3,-6 -3,-10 -14,-10c-27,0 -27,-12 -1,-28c13,-8 20,-23 20,-43c0,-29 -1,-30 -42,-28c-63,3 -63,3 -65,-54c-3,-47 0,-53 22,-64c14,-6 35,-9 48,-6c28,7 58,33 51,44c-3,5 6,20 20,33c14,13 26,28 26,35c0,6 9,11 21,11c11,0 29,5 40,10c16,9 25,5 52,-23c17,-18 41,-38 51,-44c25,-14 14,-43 -16,-43c-21,-1 -21,-2 -5,-11c22,-13 47,9 47,41c0,13 5,19 13,15c6,-3 3,0 -7,7c-32,22 -76,67 -76,78c0,16 19,12 37,-10c10,-11 21,-20 26,-20c5,0 4,7 -3,15c-10,13 -9,15 9,15c17,0 21,-4 16,-19c-3,-10 1,-24 10,-31c8,-7 15,-20 15,-30c0,-10 7,-23 15,-30c8,-7 15,-19 15,-26c0,-8 4,-14 9,-14c14,0 23,32 11,44c-5,5 -10,14 -10,20c0,5 3,6 7,3c3,-4 12,-2 20,5c16,13 26,5 30,-25c5,-38 37,-55 93,-51c44,3 50,1 50,-16c0,-10 -5,-31 -12,-45c-10,-22 -17,-25 -65,-25c-29,0 -69,7 -89,15c-40,17 -64,11 -64,-16c0,-24 0,-24 -55,6c-25,14 -45,23 -45,20c0,-3 -8,-2 -17,4c-10,5 -17,21 -18,38v28l-64,-4c-36,-1 -74,-9 -85,-16c-12,-7 -34,-12 -49,-10c-21,3 -36,-4 -58,-27c-16,-17 -29,-39 -29,-49c0,-10 -13,-27 -29,-38c-52,-38 -74,-85 -76,-167c-2,-68 -1,-74 26,-100c16,-15 29,-33 29,-40c0,-7 15,-22 34,-33c34,-22 67,-22 180,-5c30,5 41,3 48,-10c6,-11 19,-16 36,-14c26,3 27,1 27,-47c0,-37 6,-58 23,-81c34,-45 46,-109 27,-137c-19,-27 -19,-70 -1,-105c8,-15 17,-44 21,-65c4,-20 16,-54 26,-74c11,-21 19,-47 19,-60c0,-31 12,-35 77,-24c51,9 63,16 101,58c23,26 42,56 42,66c0,11 9,21 21,24c16,5 19,12 17,42c-3,30 2,40 30,63c18,15 38,28 45,31c13,4 18,77 6,93c-13,16 -14,67 -2,89c7,12 39,48 73,80c51,50 100,123 100,151c0,7 -67,-1 -94,-12c-11,-4 -19,2 -25,20c-6,14 -20,31 -31,38c-23,15 -70,89 -70,111c0,9 -3,17 -7,19c-5,2 -18,22 -31,46c-19,34 -21,42 -8,42c9,0 23,-12 33,-27c10,-16 23,-34 30,-41c7,-7 13,-20 13,-27c0,-8 11,-26 25,-41c14,-15 30,-44 35,-65c6,-22 15,-39 19,-39c19,0 121,43 121,51c0,5 7,9 15,9c19,0 85,66 85,86c0,8 -11,19 -25,24c-14,5 -25,17 -25,27c-1,17 -1,17 -14,1c-17,-23 -56,-24 -56,-1c0,9 -3,13 -7,10c-3,-4 -17,8 -30,25c-33,46 -13,59 28,18c26,-25 38,-31 60,-26c18,3 29,0 33,-9c4,-11 22,-15 65,-15c47,0 68,-5 95,-24c19,-13 32,-26 29,-30c-3,-3 2,-9 12,-12c9,-4 20,-2 25,5c4,8 9,-3 12,-26c5,-31 59,-165 74,-182c2,-2 12,3 22,12c12,11 19,33 20,57c2,34 10,48 54,92c29,29 58,53 63,54c6,1 18,5 28,9c12,5 17,2 17,-9c0,-9 7,-19 15,-22c13,-5 28,-34 30,-59c1,-9 5,-10 36,-2c13,2 41,-82 32,-96c-3,-6 -1,-7 5,-3c7,4 12,16 12,27c0,28 18,23 55,-14l33,-33l26,21c36,29 34,66 -5,103c-23,21 -30,35 -25,50c8,23 35,37 48,24c9,-9 84,24 115,49c44,37 50,137 12,178c-23,24 -25,50 -4,57c23,9 18,27 -6,21c-26,-7 -49,1 -49,17c1,12 35,56 44,56c3,0 6,-9 6,-20c0,-17 3,-19 18,-11c20,11 48,-1 38,-17c-3,-5 3,-12 14,-15c11,-3 20,-9 19,-14c-1,-4 -1,-18 0,-30c1,-16 6,-20 21,-16c27,7 25,35 -5,71c-15,19 -21,33 -15,37c5,3 10,17 10,29c0,26 21,48 41,44c27,-6 54,72 53,149c-1,40 2,70 6,68c4,-2 15,-34 24,-70c10,-35 22,-62 27,-59c5,3 4,14 -2,25c-5,11 -9,28 -7,37c4,17 -48,132 -59,132c-3,0 -3,-12 0,-26l5,-26l-25,28c-16,19 -26,25 -29,17c-7,-15 -34,-17 -34,-3c0,6 -7,10 -15,10c-16,0 -20,15 -7,24c5,3 15,30 22,61c14,57 30,75 69,75c12,0 21,5 21,10c0,6 12,10 26,10c16,0 23,-4 18,-11c-5,-8 -2,-9 11,-1c13,7 19,22 19,53c1,34 5,44 20,47c10,2 22,-2 27,-9c12,-19 22,-4 21,31c-1,32 12,42 16,13c1,-10 3,-25 4,-33c1,-8 -3,-48 -11,-88c-7,-40 -10,-84 -7,-98c7,-28 67,-124 78,-124c3,0 6,21 6,46c0,26 6,50 12,54c9,6 9,9 0,15c-7,4 -9,17 -6,31c4,14 2,24 -4,24c-5,0 -10,6 -10,14c0,8 -5,16 -11,18c-5,2 -12,17 -15,35c-4,26 0,34 23,51c15,10 33,17 40,15c6,-2 14,6 18,19c16,57 28,78 46,78c11,0 19,4 19,8c0,12 -52,56 -75,64c-17,5 -17,6 -2,7c19,1 25,45 7,56c-5,3 -10,11 -10,17c0,7 6,6 15,-2c11,-9 15,-9 15,-1c0,7 9,9 24,5c29,-7 55,4 37,16c-7,4 -13,20 -15,36c-2,16 -4,33 -5,37c0,5 -11,7 -23,5c-17,-2 -22,-9 -20,-23c4,-19 3,-19 -20,3c-16,14 -38,22 -64,23c-21,1 -52,4 -69,8c-25,6 -79,-3 -94,-16c-3,-2 4,-10 15,-17c10,-8 16,-17 13,-20c-10,-10 -39,5 -39,20c0,8 -4,14 -10,14c-5,0 -10,-7 -10,-15c0,-8 -9,-15 -19,-15c-11,0 -26,-6 -33,-13c-16,-16 -38,-10 -56,15c-16,22 -28,22 -66,3c-20,-10 -33,-12 -41,-5c-6,5 -15,6 -19,2c-4,-4 -14,1 -21,12c-11,14 -20,17 -42,11c-15,-5 -40,-7 -55,-6c-28,2 -28,1 -16,-49c2,-10 -4,-15 -19,-14c-13,0 -23,-4 -23,-9c0,-5 -9,-7 -20,-4c-17,4 -20,2 -15,-14c4,-10 4,-19 2,-19c-13,0 -62,31 -59,37c1,5 -4,16 -12,25c-18,21 -71,19 -71,-2c0,-9 -11,-16 -27,-18c-16,-2 -28,1 -28,5c0,5 -24,4 -54,-1c-35,-6 -52,-14 -49,-22c4,-12 -14,-30 -22,-22c-2,2 2,25 10,51c17,56 12,73 -26,92c-25,13 -29,13 -45,-2c-13,-13 -19,-14 -22,-5c-2,6 -10,12 -18,12c-8,0 -14,5 -14,10c0,6 -7,10 -16,10c-13,0 -15,-7 -11,-34zM2969,1839c-9,-17 -7,-23 8,-34c49,-36 56,-43 49,-53c-9,-15 -48,-15 -81,0c-18,8 -31,8 -48,0c-12,-6 -33,-13 -47,-16c-14,-3 -19,-3 -12,0c10,4 10,9 2,19c-9,10 -7,23 5,49c18,37 48,48 59,21c3,-8 10,-15 15,-15c6,0 8,7 5,15c-4,9 2,18 17,24c36,15 41,13 28,-10zM3180,1845c0,-8 -7,-15 -15,-15c-19,0 -19,-19 -1,-39c8,-9 24,-40 35,-68l21,-53h-28c-40,0 -56,14 -50,44c3,15 0,31 -8,37c-8,6 -20,24 -28,40c-14,27 -13,31 7,49c25,24 67,27 67,5zM3116,1702c-10,-2 -22,0 -28,6c-6,6 0,7 19,4c21,-5 23,-7 9,-10zM2861,627c-13,-13 -26,-3 -16,12c3,6 11,8 17,5c6,-4 6,-10 -1,-17z"></path><path d="M1235,2770c-4,-6 -16,-8 -28,-4c-22,6 -22,6 -2,-10c12,-9 15,-15 7,-16c-22,0 -2,-20 21,-21c17,-1 18,-2 5,-6c-10,-2 -18,-9 -18,-14c0,-11 90,0 108,14c14,11 16,31 2,22c-5,-3 -10,3 -10,14c0,27 -16,27 -23,1c-7,-27 -25,-26 -29,2c-3,24 -23,35 -33,18z"></path><path d="M1475,2760c3,-5 13,-10 21,-10c8,0 12,5 9,10c-3,6 -13,10 -21,10c-8,0 -12,-4 -9,-10z"></path><path d="M3970,2760c0,-5 7,-10 15,-10c8,0 15,5 15,10c0,6 -7,10 -15,10c-8,0 -15,-4 -15,-10z"></path><path d="M1366,2741c-4,-6 -2,-11 4,-11c6,0 8,-4 5,-10c-3,-5 -1,-19 5,-30c11,-21 12,-21 32,5c16,20 18,29 9,38c-9,9 -14,9 -20,-2c-7,-11 -11,-10 -18,4c-7,12 -13,14 -17,6z"></path><path d="M2615,2741c-10,-9 -4,-21 10,-21c8,0 15,-4 15,-10c0,-5 9,-10 20,-10c22,0 49,39 28,41c-41,4 -69,4 -73,0z"></path><path d="M620,2728c-25,-6 -57,-19 -72,-29c-14,-10 -35,-19 -46,-19c-12,0 -23,-4 -26,-8c-8,-13 12,-84 26,-93c9,-6 2,-9 -19,-9c-17,0 -33,5 -35,12c-3,7 -14,9 -32,4c-17,-4 -26,-12 -23,-20c3,-8 1,-18 -5,-24c-8,-8 -5,-14 13,-20c13,-5 30,-7 37,-5c6,3 12,1 12,-3c0,-20 -18,-35 -44,-38c-40,-4 -75,-36 -78,-71c-2,-23 1,-30 14,-29c14,1 15,-2 8,-16c-11,-20 5,-40 32,-40c17,0 17,-2 3,-23c-8,-13 -35,-34 -60,-46c-25,-12 -45,-24 -45,-25c0,-2 12,-1 28,2c30,6 150,78 142,86c-6,6 59,56 72,56c4,0 8,-5 8,-11c0,-5 -4,-8 -9,-5c-10,6 -47,-31 -39,-39c8,-8 58,13 58,25c0,5 7,10 15,10c8,0 15,-4 15,-10c0,-5 16,-20 35,-32c20,-13 38,-33 41,-45c4,-14 14,-23 24,-23c26,0 35,-19 18,-36c-13,-13 -15,-13 -15,0c0,8 4,13 9,10c4,-3 8,0 8,5c0,6 -7,11 -15,11c-10,0 -14,-8 -11,-22c2,-14 10,-22 20,-22c12,1 16,-8 16,-42c0,-24 4,-44 9,-44c5,0 7,-15 6,-32c-2,-20 3,-41 13,-52c16,-18 16,-18 -5,-7c-26,13 -31,0 -8,-19c21,-17 19,-60 -5,-122c-23,-60 -24,-87 -9,-156c7,-37 16,-52 35,-60c14,-7 24,-20 24,-32c0,-12 7,-34 15,-51c9,-16 13,-33 10,-38c-2,-5 2,-11 10,-15c8,-3 15,-12 15,-19c0,-8 10,-22 21,-33c22,-19 22,-19 12,1c-56,114 -63,135 -43,135c6,0 10,-6 10,-14c0,-7 11,-30 25,-50c13,-20 22,-36 19,-36c-3,0 7,-12 21,-27c23,-25 30,-43 26,-67c-5,-25 88,-76 139,-76c15,0 33,-7 40,-15c7,-8 27,-17 46,-21c22,-4 42,-18 60,-41c28,-37 76,-62 82,-44c6,19 30,12 36,-11c10,-41 6,-60 -20,-90c-14,-17 -24,-40 -23,-52c1,-12 -2,-30 -6,-40c-6,-13 -3,-22 7,-30c8,-6 29,-38 47,-71c21,-41 44,-68 70,-84c53,-32 52,-19 37,-381c-2,-47 -1,-77 1,-68c3,10 9,18 13,18c14,0 6,-66 -9,-84c-10,-12 -11,-16 -1,-16c7,0 10,-7 6,-15c-3,-8 -1,-15 5,-15c6,0 7,-5 4,-10c-4,-6 1,-23 11,-38c10,-15 19,-30 20,-34c1,-5 3,-11 4,-15c1,-5 2,-11 1,-15c0,-4 7,-7 17,-5c9,1 17,-2 17,-6c0,-15 31,-26 53,-20c27,7 28,20 3,28c-10,3 -25,19 -31,36c-11,26 -10,36 4,66c16,33 16,36 -1,48c-17,13 -17,14 1,34c11,12 16,21 12,21c-4,0 -2,9 4,20c7,14 7,20 0,20c-5,0 -10,5 -10,10c0,6 9,10 20,10c13,0 20,7 20,19c0,12 9,20 29,24c33,7 45,30 30,59c-9,17 -8,19 9,14c21,-7 52,16 52,38c0,7 11,25 25,40c15,16 25,39 25,56c0,22 8,33 36,49c19,12 41,21 49,21c20,0 35,33 42,93c4,36 15,63 35,89c52,66 29,92 -124,140c-57,18 -81,22 -90,14c-7,-6 -5,-2 4,9c16,20 16,23 -2,52c-14,24 -29,34 -57,39c-36,7 -100,49 -96,64c1,4 -20,7 -47,6c-28,-1 -50,2 -50,7c0,5 -14,7 -30,3c-19,-3 -29,-2 -25,4c16,25 -44,-5 -63,-32c-11,-15 -17,-16 -28,-7c-7,6 -25,9 -38,5c-33,-8 -50,15 -43,58c6,37 -4,46 -49,46c-24,0 -32,18 -15,35c5,6 12,20 16,33c5,18 2,22 -14,22c-11,0 -28,-11 -36,-24c-23,-35 -61,-39 -85,-8c-22,27 -25,59 -10,112c7,27 18,39 42,48c18,6 43,9 56,6c13,-4 22,-2 22,5c0,6 11,11 24,11c40,0 76,-18 76,-38c0,-10 7,-27 15,-38c16,-21 18,-15 15,49c-2,42 16,69 62,93c22,11 26,19 21,45c-3,19 -1,29 5,25c6,-3 20,7 32,24c12,16 28,30 36,30c8,0 18,10 23,23c6,14 26,30 52,40c24,10 38,12 31,5c-23,-23 -11,-25 33,-5c25,12 45,25 45,30c0,5 -7,4 -15,-3c-26,-21 -48,-4 -41,31c6,30 5,31 -25,27l-31,-5l23,18c15,11 33,15 55,12c39,-6 114,24 114,47c0,8 -16,30 -35,49c-19,18 -33,37 -30,42c3,5 1,27 -5,49l-11,41l-21,-26c-16,-21 -23,-23 -35,-14c-8,7 -12,22 -9,33c7,28 -25,65 -63,72c-24,5 -31,3 -32,-10c-1,-9 -2,-24 -3,-33c-1,-10 -6,-25 -11,-33c-5,-8 -8,-29 -6,-47c2,-27 -2,-35 -23,-44c-20,-10 -26,-19 -26,-45c0,-39 -18,-54 -36,-30c-8,12 -9,27 -4,47c7,24 6,29 -8,29c-10,0 -33,14 -51,31c-18,16 -39,28 -46,25c-8,-3 -10,4 -7,20c2,14 0,24 -7,24c-21,0 -11,30 25,70c20,22 40,38 44,35c4,-3 10,2 14,10c3,8 12,15 20,15c8,0 27,15 43,33c17,19 35,31 46,29c23,-5 47,15 47,38c0,10 5,20 11,22c13,4 1,38 -15,38c-6,0 -22,-16 -36,-34c-28,-38 -43,-38 -34,1c5,18 3,24 -5,19c-12,-8 -15,8 -11,69c2,43 16,68 40,73c8,2 21,9 29,17c11,11 10,15 -10,25c-20,11 -25,10 -41,-10c-10,-12 -18,-29 -18,-37c0,-7 -11,-25 -25,-39c-24,-24 -34,-64 -16,-64c17,0 -1,-39 -26,-56c-14,-9 -22,-11 -19,-5c11,17 -3,34 -18,22c-16,-13 -42,-8 -66,11c-22,20 -60,13 -61,-11c0,-11 -3,-10 -9,6c-6,14 -15,20 -27,17c-10,-2 -25,0 -33,6c-13,9 -13,11 0,20c13,9 13,12 -4,21c-10,6 -27,20 -38,31c-11,11 -26,17 -35,14c-11,-5 -14,-2 -9,10c5,14 4,15 -9,4c-12,-10 -15,-9 -15,6c0,15 -8,20 -38,21c-29,2 -34,1 -22,-8c12,-9 11,-10 -5,-4c-23,7 -25,8 -42,6c-7,-1 -10,-8 -6,-18c6,-19 -7,-5 -52,51c-11,14 -23,25 -28,26c-16,1 -77,46 -77,58c0,11 -13,16 -32,13c-4,0 -5,6 -2,14c4,8 5,15 3,14c-2,-1 -24,-6 -49,-11zM760,1964c0,-8 -4,-14 -8,-14c-4,0 -8,9 -8,19c0,11 4,17 8,15c4,-3 8,-12 8,-20z"></path><path d="M1450,2736c0,-3 7,-12 16,-21c14,-14 15,-20 4,-40c-13,-24 -6,-50 11,-40c5,4 9,2 9,-3c0,-14 82,-22 98,-10c22,19 7,33 -39,38c-36,4 -44,9 -44,26c0,22 -26,54 -44,54c-6,0 -11,-2 -11,-4z"></path><path d="M2590,2723c0,-7 -10,-12 -21,-10c-32,3 -33,-16 -5,-50c14,-17 23,-33 20,-36c-4,-3 1,-14 10,-23c20,-19 19,-21 33,35c10,41 9,46 -13,70c-13,14 -24,20 -24,14zM2600,2666c0,-3 -4,-8 -10,-11c-5,-3 -10,-1 -10,4c0,6 5,11 10,11c6,0 10,-2 10,-4z"></path><path d="M1073,2680c-18,-21 -33,-46 -33,-54c0,-22 33,-20 55,4c10,11 25,20 33,20c9,0 6,-7 -9,-20c-21,-17 -22,-21 -9,-30c13,-8 13,-10 -2,-10c-28,0 -21,-17 12,-29c40,-14 38,-21 -5,-14c-28,5 -35,2 -35,-11c0,-9 6,-19 14,-22c9,-3 12,-12 9,-21c-5,-14 1,-15 45,-9c31,4 53,3 57,-4c9,-14 45,-12 42,3c-1,6 4,11 11,10c15,-4 15,2 1,28c-12,24 5,88 29,105c12,9 13,12 2,19c-9,5 -15,4 -18,-3c-2,-7 -9,-12 -16,-12c-7,0 -18,-15 -24,-32c-9,-25 -10,-27 -7,-6c4,22 2,25 -15,21c-16,-4 -19,-2 -13,13c5,13 3,16 -9,12c-11,-5 -14,-1 -11,17c5,25 -30,65 -56,65c-9,0 -31,-18 -48,-40z"></path><path d="M1420,2664c0,-17 22,-14 28,4c2,7 -3,12 -12,12c-9,0 -16,-7 -16,-16z"></path><path d="M2647,2646c3,-16 10,-23 19,-19c10,4 11,10 3,24c-14,27 -27,24 -22,-5z"></path><path d="M3112,2650c-7,-11 -19,-20 -27,-20c-22,0 -47,-46 -51,-93c-2,-23 -6,-52 -9,-64c-3,-13 -1,-23 6,-23c6,0 17,-7 25,-15c9,-8 22,-15 30,-15c11,0 10,7 -7,29c-17,24 -20,37 -14,67c7,40 36,88 69,115c11,9 16,21 12,27c-10,17 -19,15 -34,-8z"></path><path d="M1352,2629c-13,-5 -21,-13 -17,-18c3,-5 1,-12 -5,-16c-5,-3 -10,-1 -10,6c0,9 -3,10 -10,3c-16,-16 11,-60 33,-56c9,2 18,9 19,15c2,22 5,32 13,50c10,23 5,27 -23,16z"></path><path d="M1454,2566c-35,-35 -43,-56 -21,-56c8,0 7,-3 -3,-10c-13,-8 -12,-11 5,-24c29,-22 85,-32 95,-16c5,9 9,9 14,1c4,-6 4,-11 1,-11c-4,0 3,-15 14,-34c26,-42 26,-61 1,-79c-11,-8 -17,-17 -13,-20c6,-7 -1,-9 -39,-11c-26,-1 -22,-20 4,-24c27,-5 50,-21 43,-32c-6,-9 44,-44 52,-36c3,3 0,12 -7,21c-15,18 1,20 18,3c21,-21 33,4 16,36c-9,18 -11,33 -5,39c6,6 13,1 20,-12l12,-21l21,20l22,20l-33,34c-31,32 -32,35 -14,45c14,8 14,11 3,11c-13,0 -13,1 0,10c11,7 11,10 2,10c-7,0 -10,5 -7,10c3,6 -1,13 -9,16c-9,3 -16,12 -16,20c0,8 -5,13 -12,12c-7,-2 -13,3 -14,10c-1,6 -2,17 -3,22c0,6 -14,10 -30,10c-25,0 -28,3 -23,25c9,49 -51,22 -68,-30c-10,-30 -10,-30 -5,5c3,19 12,40 20,46c18,13 19,24 4,24c-6,0 -26,-15 -45,-34z"></path><path d="M1560,2560c0,-13 7,-20 20,-20c11,0 20,4 20,10c0,5 -9,14 -20,20c-17,9 -20,8 -20,-10z"></path><path d="M302,2506c7,-8 15,-12 17,-11c5,6 -10,25 -20,25c-5,0 -4,-6 3,-14z"></path><path d="M1294,2476c-13,-15 -7,-36 12,-36c15,0 18,18 6,36c-5,9 -10,9 -18,0z"></path><path d="M1160,2470c0,-13 11,-13 30,0c12,8 11,10 -7,10c-13,0 -23,-4 -23,-10z"></path><path d="M1525,2381c-6,-11 9,-23 19,-14c9,9 7,23 -3,23c-6,0 -12,-4 -16,-9z"></path><path d="M3005,2370c3,-5 8,-10 11,-10c2,0 4,5 4,10c0,6 -5,10 -11,10c-5,0 -7,-4 -4,-10z"></path><path d="M1383,2307c-12,-25 -1,-59 11,-38c4,6 19,9 34,5c15,-3 23,-2 17,3c-5,4 -15,17 -21,27c-15,29 -29,30 -41,3z"></path><path d="M420,2270c-8,-5 -12,-11 -9,-14c2,-3 11,-1 19,4c8,5 12,11 9,14c-2,3 -11,1 -19,-4z"></path><path d="M2154,2258c-5,-7 -3,-8 6,-3c10,6 12,4 7,-8c-7,-19 17,-47 41,-47c27,0 62,29 62,51c0,14 -7,19 -28,19c-15,0 -33,-5 -40,-12c-9,-9 -12,-9 -12,0c0,15 -27,16 -36,0z"></path><path d="M1395,2240c-3,-6 1,-7 9,-4c18,7 21,14 7,14c-6,0 -13,-4 -16,-10z"></path><path d="M662,2100c0,-14 2,-19 5,-12c2,6 2,18 0,25c-3,6 -5,1 -5,-13z"></path><path d="M2377,2073c-12,-12 -7,-51 8,-67c12,-12 13,-24 6,-55c-10,-44 -4,-48 46,-35c20,6 40,44 23,44c-14,0 -52,70 -46,85c3,9 -1,15 -10,15c-8,0 -12,5 -9,10c7,11 -8,14 -18,3z"></path><path d="M2334,1997c-14,-17 -24,-56 -15,-62c14,-8 40,19 47,48c7,29 -11,37 -32,14z"></path><path d="M1661,1918l-20,-33l24,-3c16,-2 23,-8 18,-15c-4,-8 -1,-7 9,1c13,10 17,10 21,0c3,-7 5,-2 4,12c-1,14 -10,28 -19,32c-11,4 -15,13 -12,23c10,26 -3,17 -25,-17z"></path><path d="M4437,1900c3,-11 1,-26 -5,-33c-8,-9 -8,-17 0,-27c8,-12 9,-11 4,4c-5,15 -2,17 13,13c12,-3 27,3 37,14c15,17 13,23 -8,21c-3,-1 -12,5 -18,13c-18,21 -29,18 -23,-5z"></path><path d="M4440,1781c0,-28 -5,-44 -15,-47c-8,-4 -15,-12 -15,-20c0,-8 -10,-14 -22,-14c-29,-1 -59,-40 -51,-69c8,-30 25,-26 21,6c-2,16 2,28 11,31c8,2 11,0 8,-5c-4,-6 4,-8 18,-5c14,2 25,11 25,19c0,8 3,12 8,10c4,-3 16,-1 27,3c18,7 20,14 15,66c-6,69 -30,88 -30,25z"></path><path d="M2560,1720c0,-11 5,-20 10,-20c6,0 10,9 10,20c0,11 -4,20 -10,20c-5,0 -10,-9 -10,-20z"></path><path d="M2788,1633c7,-3 16,-2 19,1c4,3 -2,6 -13,5c-11,0 -14,-3 -6,-6z"></path><path d="M4220,1464c0,-14 4,-23 10,-19c6,3 10,15 10,26c0,10 -4,19 -10,19c-5,0 -10,-12 -10,-26z"></path><path d="M1250,1441c0,-5 11,-12 24,-15c14,-3 32,-13 40,-22c9,-8 24,-14 34,-12c13,3 9,8 -15,21c-50,26 -83,37 -83,28z"></path><path d="M4055,1391c-10,-17 12,-21 25,-6c10,12 10,15 -3,15c-9,0 -18,-4 -22,-9z"></path><path d="M1383,1374c0,-11 7,-14 21,-10c12,3 28,6 36,6c13,0 13,1 0,10c-24,15 -57,12 -57,-6z"></path><path d="M4228,1358c-2,-13 1,-37 8,-53c7,-17 13,-24 14,-16c0,8 7,11 20,8c11,-3 18,-1 14,4c-3,5 -12,9 -20,9c-10,0 -13,10 -12,31c3,37 -17,51 -24,17z"></path><path d="M4303,1265c0,-8 4,-12 9,-9c5,3 6,10 3,15c-9,13 -12,11 -12,-6z"></path><path d="M4260,1260c0,-5 5,-10 10,-10c6,0 10,5 10,10c0,6 -4,10 -10,10c-5,0 -10,-4 -10,-10z"></path><path d="M3640,1208c0,-16 4,-28 9,-28c18,0 20,17 6,36c-14,18 -14,18 -15,-8z"></path><path d="M3910,1221c0,-5 7,-14 15,-21c8,-6 17,-22 21,-33c7,-25 33,-57 46,-57c18,0 -6,55 -38,87c-34,34 -44,39 -44,24z"></path><path d="M4305,1220c-4,-6 -10,-8 -15,-5c-5,3 -11,1 -15,-5c-3,-5 0,-10 8,-10c8,0 18,-8 21,-17c6,-15 8,-15 16,-3c6,8 10,23 10,33c0,19 -15,23 -25,7z"></path><path d="M4151,1153c-19,-19 -45,-39 -57,-43c-20,-8 -22,-12 -11,-39c8,-22 20,-32 49,-39c36,-9 38,-9 57,27c11,22 17,48 14,63c-3,14 0,29 6,32c8,5 7,12 -3,22c-18,17 -14,19 -55,-23z"></path><path d="M3899,1133c16,-21 38,-54 49,-73c17,-33 65,-70 75,-60c11,11 11,55 0,55c-13,0 -28,13 -28,25c0,9 -105,90 -118,90c-4,0 5,-17 22,-37z"></path><path d="M4350,1099c0,-5 5,-7 10,-4c6,3 10,8 10,11c0,2 -4,4 -10,4c-5,0 -10,-5 -10,-11z"></path><path d="M4237,1093c-11,-20 -14,-60 -7,-78c8,-18 9,-18 9,4c1,24 1,24 16,5c15,-19 16,-19 13,1c-1,11 1,26 6,34c7,10 4,12 -13,6c-15,-4 -21,-2 -21,9c0,10 12,16 38,19l37,4l-37,1c-20,1 -39,-1 -41,-5z"></path><path d="M4410,1070c-9,-6 -6,-10 10,-15c18,-6 20,-9 9,-16c-8,-5 -12,-9 -9,-10c47,-8 90,-27 90,-39c0,-5 0,-13 -1,-16c0,-4 14,-14 31,-22c29,-14 33,-14 42,1c12,22 23,21 45,-2c10,-10 29,-22 43,-26c25,-7 25,-7 -4,24c-17,17 -26,31 -21,31c22,0 -40,43 -90,62c-54,20 -56,20 -76,2c-19,-17 -20,-17 -25,3c-7,25 -25,35 -44,23z"></path><path d="M4368,1033c7,-3 16,-2 19,1c4,3 -2,6 -13,5c-11,0 -14,-3 -6,-6z"></path><path d="M4704,1011c-5,-5 -18,-11 -29,-14c-15,-4 -14,-5 7,-6c15,0 30,4 33,10c9,14 1,21 -11,10z"></path><path d="M4030,981c0,-6 3,-11 8,-11c4,-1 26,-5 50,-9c33,-7 42,-5 42,5c0,9 -11,14 -27,14c-16,0 -38,3 -50,6c-14,4 -23,2 -23,-5z"></path><path d="M4300,940c-8,-5 -10,-10 -5,-10c6,0 17,5 25,10c8,5 11,10 5,10c-5,0 -17,-5 -25,-10z"></path><path d="M4420,899c0,-5 -6,-9 -14,-9c-8,0 -22,-10 -30,-22c-13,-17 -18,-19 -30,-9c-13,11 -21,8 -46,-17c-16,-17 -30,-27 -30,-24c-1,4 -7,-4 -14,-16c-8,-15 -33,-31 -65,-42c-29,-9 -57,-22 -63,-28c-10,-10 -13,-65 -8,-137c2,-22 0,-50 -4,-63c-9,-27 17,-41 45,-24c10,7 30,12 44,12c14,0 36,6 48,14c71,45 160,22 147,-39c-1,-5 10,1 25,15c18,17 26,20 24,10c-1,-8 2,-34 6,-58c8,-44 34,-69 60,-58c8,3 16,0 18,-7c3,-9 8,-9 18,1c7,6 20,12 29,12c9,0 24,18 34,41c10,23 27,50 38,61c22,22 48,89 48,124c0,14 -11,42 -25,64c-14,22 -25,43 -25,47c0,5 -9,14 -20,21c-14,8 -20,23 -20,47c0,22 -6,38 -15,41c-8,4 -15,14 -15,24c0,39 -19,28 -25,-13c-10,-66 -17,-73 -51,-51c-38,24 -44,35 -34,54c7,12 2,19 -21,27c-16,6 -29,7 -29,2z"></path><path d="M3163,880c-7,-10 -25,-25 -40,-32c-18,-9 -27,-21 -26,-33c2,-11 -2,-29 -8,-41c-18,-35 -8,-69 20,-69c21,0 28,10 55,88c19,56 27,90 20,97c-6,6 -14,3 -21,-10z"></path><path d="M4886,737c3,-10 9,-15 12,-12c3,3 0,11 -7,18c-10,9 -11,8 -5,-6z"></path><path d="M4957,416c3,-19 2,-43 -2,-53c-5,-10 -9,-31 -10,-47l-3,-28l36,36l35,37l-21,15c-12,8 -22,26 -22,39c0,13 -4,26 -9,30c-6,3 -8,-9 -4,-29z"></path><path d="M4500,322c0,-38 13,-47 34,-26c17,17 21,44 7,44c-5,0 -16,3 -25,6c-12,5 -16,-1 -16,-24z"></path><path d="M4873,275c-17,-16 -45,-40 -62,-53c-34,-26 -38,-37 -16,-46c22,-8 40,2 55,30c7,13 18,24 23,24c12,0 46,42 47,57c0,23 -15,19 -47,-12z"></path></g></g></g></svg>