<?xml version="1.0" standalone="no"?>
<!DOCTYPE svg PUBLIC "-//W3C//DTD SVG 20010904//EN"
 "http://www.w3.org/TR/2001/REC-SVG-20010904/DTD/svg10.dtd">
<svg version="1.0" xmlns="http://www.w3.org/2000/svg"
 width="512.000000pt" height="298.000000pt" viewBox="0 0 512.000000 298.000000"
 preserveAspectRatio="xMidYMid meet">

<g transform="translate(0.000000,298.000000) scale(0.100000,-0.100000)"
fill="#000000" stroke="none">
<path d="M1796 2971 c-3 -5 -14 -7 -25 -4 -10 2 -25 -3 -34 -11 -10 -10 -18
-12 -22 -6 -4 6 -11 8 -16 4 -5 -3 -7 -10 -4 -15 4 -5 -3 -5 -18 0 -30 11 -41
3 -45 -30 -2 -27 10 -38 53 -48 3 0 0 -7 -7 -15 -11 -12 -14 -12 -21 0 -12 20
-27 7 -27 -22 0 -17 -8 -27 -25 -34 -24 -9 -35 -30 -15 -30 5 0 6 -8 3 -17 -4
-11 -8 -12 -11 -5 -5 17 -22 15 -22 -2 0 -7 -10 -16 -22 -20 -29 -7 -13 -26
28 -32 56 -9 69 -9 69 2 0 12 22 34 50 50 11 6 20 19 20 29 0 10 10 21 23 26
12 5 22 6 22 4 0 -2 16 7 36 20 19 13 44 27 55 30 11 4 17 11 14 16 -4 5 2 9
11 9 30 0 55 30 43 52 -5 10 -14 16 -20 13 -5 -4 -9 -2 -9 4 0 8 -29 23 -50
26 -3 0 -10 4 -17 8 -6 4 -14 3 -17 -2z m-61 -111 c3 -6 -4 -10 -17 -10 -18 0
-20 2 -8 10 19 12 18 12 25 0z"/>
<path d="M1593 2924 c7 -8 -17 -34 -32 -34 -6 0 -10 -3 -9 -7 0 -5 -3 -17 -7
-27 -6 -13 -4 -21 4 -24 8 -3 7 -8 -5 -17 -19 -13 -13 -45 8 -41 24 3 69 39
65 50 -2 6 0 19 4 28 6 10 5 19 -1 23 -5 3 -10 17 -10 31 0 13 -5 24 -12 24
-6 0 -9 -3 -5 -6z"/>
<path d="M2124 2919 c-3 -6 -15 -9 -25 -6 -12 3 -23 -2 -30 -14 -5 -11 -15
-16 -21 -13 -8 5 -9 -3 -5 -24 8 -38 -8 -44 -17 -7 -7 27 -26 34 -26 10 0 -22
-21 -18 -27 4 -3 11 -10 18 -16 16 -7 -2 -24 -6 -39 -9 -16 -4 -28 -13 -28
-21 0 -8 -8 -15 -18 -15 -26 0 -67 -31 -53 -40 23 -14 -1 -37 -47 -46 -53 -10
-62 -31 -22 -51 l25 -13 -27 0 c-22 0 -27 -4 -25 -20 4 -26 9 -30 46 -35 46
-5 57 -19 59 -67 1 -23 4 -50 7 -59 3 -10 1 -20 -5 -24 -15 -9 -12 -35 4 -29
8 3 15 -3 18 -14 4 -14 0 -18 -16 -18 -12 1 -22 -6 -24 -16 -2 -11 3 -18 13
-18 9 0 13 5 10 10 -7 11 8 14 18 4 9 -10 -15 -54 -30 -54 -7 0 -13 -3 -14 -7
0 -5 -2 -17 -4 -28 -6 -31 5 -66 19 -58 8 5 8 3 0 -8 -16 -21 2 -80 27 -86 10
-3 19 -9 19 -14 0 -5 6 -9 14 -9 12 0 30 34 27 53 -1 4 3 7 8 7 10 0 27 39 23
52 -2 8 37 23 68 27 6 0 20 12 31 25 12 14 38 27 58 31 40 7 97 44 71 46 -8 1
-19 1 -24 0 -5 -1 -4 4 2 12 7 8 11 16 9 18 -1 2 3 -1 9 -8 30 -34 45 -3 18
35 -9 13 -13 26 -10 29 3 4 6 1 6 -6 0 -7 5 -9 12 -5 7 5 5 12 -8 22 -18 14
-18 14 -1 8 24 -8 44 4 26 15 -11 7 -10 9 5 9 13 0 17 5 13 19 -4 15 -1 18 12
13 14 -5 14 -3 -2 21 -19 30 -15 50 8 40 8 -3 15 0 15 6 0 6 -4 11 -9 11 -14
0 -1 62 21 98 11 17 16 32 11 33 -4 0 2 4 15 9 12 5 25 17 29 26 10 27 -18 34
-58 13 -40 -20 -67 -26 -36 -8 9 5 17 17 17 26 0 13 -3 14 -12 5 -7 -7 -19
-12 -27 -12 -13 0 -14 2 -2 9 11 7 10 10 -5 14 -13 3 -9 5 11 6 43 2 60 14 41
30 -8 7 -21 9 -27 5 -8 -4 -9 -3 -5 4 4 8 0 12 -11 12 -15 0 -15 2 -3 10 11 7
9 11 -13 19 -36 14 -64 14 -73 0z"/>
<path d="M3284 2906 c-3 -8 -2 -21 2 -28 5 -7 9 -16 9 -21 0 -12 55 -37 81
-37 28 0 30 7 9 37 -16 23 -34 24 -61 3 -16 -12 -17 -12 -6 0 18 20 15 38 -8
50 -16 9 -22 8 -26 -4z"/>
<path d="M1433 2856 c3 -7 0 -19 -6 -25 -8 -8 -8 -11 0 -11 7 0 13 -10 15 -22
l3 -23 14 23 c16 29 7 72 -15 72 -10 0 -14 -6 -11 -14z"/>
<path d="M1340 2850 c19 -13 30 -13 30 0 0 6 -10 10 -22 10 -19 0 -20 -2 -8
-10z"/>
<path d="M3417 2827 c8 -42 8 -42 33 -19 22 20 16 31 -22 45 -15 5 -16 1 -11
-26z"/>
<path d="M3864 2849 c-2 -4 5 -18 15 -30 19 -23 21 -23 48 -7 32 19 43 48 18
48 -12 0 -15 -5 -11 -17 5 -16 5 -16 -6 -2 -13 15 -56 21 -64 8z"/>
<path d="M3990 2850 c20 -13 40 -13 40 0 0 6 -12 10 -27 10 -22 0 -25 -2 -13
-10z"/>
<path d="M1311 2819 c8 -16 13 -18 25 -8 17 14 14 18 -15 24 -18 3 -20 1 -10
-16z"/>
<path d="M1200 2813 c-30 -13 -32 -16 -16 -25 12 -7 21 -7 28 0 6 6 16 8 23 5
8 -2 18 5 25 16 9 18 8 21 -7 20 -10 0 -34 -7 -53 -16z"/>
<path d="M2990 2815 c0 -8 4 -15 10 -15 5 0 7 7 4 15 -4 8 -8 15 -10 15 -2 0
-4 -7 -4 -15z"/>
<path d="M1480 2800 c0 -13 5 -20 13 -17 6 2 12 10 12 17 0 7 -6 15 -12 18 -8
2 -13 -5 -13 -18z"/>
<path d="M2945 2810 c4 -6 11 -8 16 -5 14 9 11 15 -7 15 -8 0 -12 -5 -9 -10z"/>
<path d="M2853 2787 c-4 -6 0 -8 10 -4 10 4 17 0 19 -11 3 -15 6 -14 16 4 10
19 9 22 -13 22 -14 0 -28 -5 -32 -11z"/>
<path d="M2967 2793 c-4 -3 -7 -11 -7 -17 0 -6 5 -5 12 2 6 6 9 14 7 17 -3 3
-9 2 -12 -2z"/>
<path d="M3473 2756 c6 -39 -13 -63 -45 -58 -10 2 -18 -1 -18 -7 0 -6 -12 -22
-26 -36 -25 -25 -25 -27 -9 -45 15 -17 15 -19 -19 -30 -32 -10 -34 -13 -23
-31 6 -10 20 -22 29 -25 21 -6 45 -44 28 -44 -5 0 -10 6 -10 14 0 8 -11 17
-24 20 -13 3 -32 9 -43 13 -16 6 -16 5 -4 -10 9 -12 10 -17 2 -17 -7 0 -9 -4
-6 -10 3 -5 2 -10 -4 -10 -5 0 -11 6 -14 13 -2 6 -8 9 -12 5 -12 -11 27 -89
42 -84 17 7 43 -3 43 -16 0 -6 -6 -6 -14 1 -16 13 -32 -2 -21 -20 11 -18 -4
-59 -22 -59 -13 0 -14 3 -5 12 18 18 15 35 -18 105 -16 34 -30 68 -30 73 0 6
-9 10 -20 10 -13 0 -20 -7 -20 -19 0 -11 -2 -26 -5 -33 -3 -8 6 -31 19 -51 27
-40 26 -43 -7 -25 -12 6 -40 15 -62 19 -33 6 -37 5 -22 -6 9 -6 17 -21 17 -31
0 -13 -3 -15 -8 -7 -6 10 -14 9 -34 -1 -18 -10 -29 -11 -36 -4 -8 8 -21 1 -42
-21 -35 -34 -52 -40 -48 -15 2 10 -3 19 -11 22 -11 4 -13 -2 -8 -26 5 -24 2
-31 -13 -35 -12 -3 -20 -14 -20 -27 0 -17 -4 -20 -20 -15 -21 7 -28 -10 -7
-18 7 -3 5 -6 -6 -6 -10 -1 -23 11 -30 27 -6 15 -19 33 -27 40 -13 11 -11 11
8 2 32 -16 76 -9 80 12 4 21 -51 58 -85 58 -13 0 -23 4 -23 9 0 5 -9 7 -20 4
-16 -4 -19 -2 -13 13 5 13 3 16 -10 11 -8 -3 -18 -1 -21 6 -3 8 -5 8 -5 -2 -1
-11 -4 -11 -16 -1 -12 10 -16 9 -21 -3 -3 -9 -21 -21 -40 -27 -19 -6 -34 -18
-34 -26 0 -8 -9 -24 -20 -36 -10 -11 -22 -33 -25 -49 -4 -15 -24 -44 -46 -64
-35 -32 -39 -39 -36 -77 4 -47 19 -58 46 -34 18 16 20 15 37 -27 16 -40 20
-43 41 -33 13 6 21 16 19 22 -3 6 2 24 10 39 10 20 11 32 4 39 -16 16 -12 51
10 71 11 10 20 27 20 37 0 20 23 34 40 23 7 -4 2 -18 -14 -39 -17 -23 -23 -40
-19 -57 9 -33 22 -39 67 -32 31 5 38 3 34 -8 -3 -8 -13 -13 -24 -12 -30 4 -52
-13 -36 -29 18 -18 14 -30 -8 -23 -15 5 -20 2 -20 -12 0 -11 5 -24 12 -31 9
-9 8 -12 -7 -13 -11 0 -33 -3 -50 -5 -34 -5 -75 -7 -91 -5 -6 0 -10 16 -9 36
2 30 0 34 -12 24 -8 -7 -13 -25 -11 -43 3 -26 -1 -32 -20 -34 -13 -2 -26 -11
-30 -20 -10 -26 -54 -63 -69 -57 -8 2 -11 0 -8 -5 3 -6 -3 -10 -14 -10 -27 0
-27 -12 -1 -28 13 -8 20 -23 20 -43 0 -29 -1 -30 -42 -28 -63 3 -63 3 -65 -54
-3 -47 0 -53 22 -64 14 -6 35 -9 48 -6 28 7 58 33 51 44 -3 5 6 20 20 33 14
13 26 28 26 35 0 6 9 11 21 11 11 0 29 5 40 10 16 9 25 5 52 -23 17 -18 41
-38 51 -44 25 -14 14 -43 -16 -43 -21 -1 -21 -2 -5 -11 22 -13 47 9 47 41 0
13 5 19 13 15 6 -3 3 0 -7 7 -32 22 -76 67 -76 78 0 16 19 12 37 -10 10 -11
21 -20 26 -20 5 0 4 7 -3 15 -10 13 -9 15 9 15 17 0 21 -4 16 -19 -3 -10 1
-24 10 -31 8 -7 15 -20 15 -30 0 -10 7 -23 15 -30 8 -7 15 -19 15 -26 0 -8 4
-14 9 -14 14 0 23 32 11 44 -5 5 -10 14 -10 20 0 5 3 6 7 3 3 -4 12 -2 20 5
16 13 26 5 30 -25 5 -38 37 -55 93 -51 44 3 50 1 50 -16 0 -10 -5 -31 -12 -45
-10 -22 -17 -25 -65 -25 -29 0 -69 7 -89 15 -40 17 -64 11 -64 -16 0 -24 0
-24 -55 6 -25 14 -45 23 -45 20 0 -3 -8 -2 -17 4 -10 5 -17 21 -18 38 l0 28
-64 -4 c-36 -1 -74 -9 -85 -16 -12 -7 -34 -12 -49 -10 -21 3 -36 -4 -58 -27
-16 -17 -29 -39 -29 -49 0 -10 -13 -27 -29 -38 -52 -38 -74 -85 -76 -167 -2
-68 -1 -74 26 -100 16 -15 29 -33 29 -40 0 -7 15 -22 34 -33 34 -22 67 -22
180 -5 30 5 41 3 48 -10 6 -11 19 -16 36 -14 26 3 27 1 27 -47 0 -37 6 -58 23
-81 34 -45 46 -109 27 -137 -19 -27 -19 -70 -1 -105 8 -15 17 -44 21 -65 4
-20 16 -54 26 -74 11 -21 19 -47 19 -60 0 -31 12 -35 77 -24 51 9 63 16 101
58 23 26 42 56 42 66 0 11 9 21 21 24 16 5 19 12 17 42 -3 30 2 40 30 63 18
15 38 28 45 31 13 4 18 77 6 93 -13 16 -14 67 -2 89 7 12 39 48 73 80 51 50
100 123 100 151 0 7 -67 -1 -94 -12 -11 -4 -19 2 -25 20 -6 14 -20 31 -31 38
-23 15 -70 89 -70 111 0 9 -3 17 -7 19 -5 2 -18 22 -31 46 -19 34 -21 42 -8
42 9 0 23 -12 33 -27 10 -16 23 -34 30 -41 7 -7 13 -20 13 -27 0 -8 11 -26 25
-41 14 -15 30 -44 35 -65 6 -22 15 -39 19 -39 19 0 121 43 121 51 0 5 7 9 15
9 19 0 85 66 85 86 0 8 -11 19 -25 24 -14 5 -25 17 -25 27 -1 17 -1 17 -14 1
-17 -23 -56 -24 -56 -1 0 9 -3 13 -7 10 -3 -4 -17 8 -30 25 -33 46 -13 59 28
18 26 -25 38 -31 60 -26 18 3 29 0 33 -9 4 -11 22 -15 65 -15 47 0 68 -5 95
-24 19 -13 32 -26 29 -30 -3 -3 2 -9 12 -12 9 -4 20 -2 25 5 4 8 9 -3 12 -26
5 -31 59 -165 74 -182 2 -2 12 3 22 12 12 11 19 33 20 57 2 34 10 48 54 92 29
29 58 53 63 54 6 1 18 5 28 9 12 5 17 2 17 -9 0 -9 7 -19 15 -22 13 -5 28 -34
30 -59 1 -9 5 -10 36 -2 13 2 41 -82 32 -96 -3 -6 -1 -7 5 -3 7 4 12 16 12 27
0 28 18 23 55 -14 l33 -33 26 21 c36 29 34 66 -5 103 -23 21 -30 35 -25 50 8
23 35 37 48 24 9 -9 84 24 115 49 44 37 50 137 12 178 -23 24 -25 50 -4 57 23
9 18 27 -6 21 -26 -7 -49 1 -49 17 1 12 35 56 44 56 3 0 6 -9 6 -20 0 -17 3
-19 18 -11 20 11 48 -1 38 -17 -3 -5 3 -12 14 -15 11 -3 20 -9 19 -14 -1 -4
-1 -18 0 -30 1 -16 6 -20 21 -16 27 7 25 35 -5 71 -15 19 -21 33 -15 37 5 3
10 17 10 29 0 26 21 48 41 44 27 -6 54 72 53 149 -1 40 2 70 6 68 4 -2 15 -34
24 -70 10 -35 22 -62 27 -59 5 3 4 14 -2 25 -5 11 -9 28 -7 37 4 17 -48 132
-59 132 -3 0 -3 -12 0 -26 l5 -26 -25 28 c-16 19 -26 25 -29 17 -7 -15 -34
-17 -34 -3 0 6 -7 10 -15 10 -16 0 -20 15 -7 24 5 3 15 30 22 61 14 57 30 75
69 75 12 0 21 5 21 10 0 6 12 10 26 10 16 0 23 -4 18 -11 -5 -8 -2 -9 11 -1
13 7 19 22 19 53 1 34 5 44 20 47 10 2 22 -2 27 -9 12 -19 22 -4 21 31 -1 32
12 42 16 13 1 -10 3 -25 4 -33 1 -8 -3 -48 -11 -88 -7 -40 -10 -84 -7 -98 7
-28 67 -124 78 -124 3 0 6 21 6 46 0 26 6 50 12 54 9 6 9 9 0 15 -7 4 -9 17
-6 31 4 14 2 24 -4 24 -5 0 -10 6 -10 14 0 8 -5 16 -11 18 -5 2 -12 17 -15 35
-4 26 0 34 23 51 15 10 33 17 40 15 6 -2 14 6 18 19 16 57 28 78 46 78 11 0
19 4 19 8 0 12 -52 56 -75 64 -17 5 -17 6 -2 7 19 1 25 45 7 56 -5 3 -10 11
-10 17 0 7 6 6 15 -2 11 -9 15 -9 15 -1 0 7 9 9 24 5 29 -7 55 4 37 16 -7 4
-13 20 -15 36 -2 16 -4 33 -5 37 0 5 -11 7 -23 5 -17 -2 -22 -9 -20 -23 4 -19
3 -19 -20 3 -16 14 -38 22 -64 23 -21 1 -52 4 -69 8 -25 6 -79 -3 -94 -16 -3
-2 4 -10 15 -17 10 -8 16 -17 13 -20 -10 -10 -39 5 -39 20 0 8 -4 14 -10 14
-5 0 -10 -7 -10 -15 0 -8 -9 -15 -19 -15 -11 0 -26 -6 -33 -13 -16 -16 -38
-10 -56 15 -16 22 -28 22 -66 3 -20 -10 -33 -12 -41 -5 -6 5 -15 6 -19 2 -4
-4 -14 1 -21 12 -11 14 -20 17 -42 11 -15 -5 -40 -7 -55 -6 -28 2 -28 1 -16
-49 2 -10 -4 -15 -19 -14 -13 0 -23 -4 -23 -9 0 -5 -9 -7 -20 -4 -17 4 -20 2
-15 -14 4 -10 4 -19 2 -19 -13 0 -62 31 -59 37 1 5 -4 16 -12 25 -18 21 -71
19 -71 -2 0 -9 -11 -16 -27 -18 -16 -2 -28 1 -28 5 0 5 -24 4 -54 -1 -35 -6
-52 -14 -49 -22 4 -12 -14 -30 -22 -22 -2 2 2 25 10 51 17 56 12 73 -26 92
-25 13 -29 13 -45 -2 -13 -13 -19 -14 -22 -5 -2 6 -10 12 -18 12 -8 0 -14 5
-14 10 0 6 -7 10 -16 10 -13 0 -15 -7 -11 -34z m-504 -917 c-9 -17 -7 -23 8
-34 49 -36 56 -43 49 -53 -9 -15 -48 -15 -81 0 -18 8 -31 8 -48 0 -12 -6 -33
-13 -47 -16 -14 -3 -19 -3 -12 0 10 4 10 9 2 19 -9 10 -7 23 5 49 18 37 48 48
59 21 3 -8 10 -15 15 -15 6 0 8 7 5 15 -4 9 2 18 17 24 36 15 41 13 28 -10z
m211 6 c0 -8 -7 -15 -15 -15 -19 0 -19 -19 -1 -39 8 -9 24 -40 35 -68 l21 -53
-28 0 c-40 0 -56 14 -50 44 3 15 0 31 -8 37 -8 6 -20 24 -28 40 -14 27 -13 31
7 49 25 24 67 27 67 5z m-64 -143 c-10 -2 -22 0 -28 6 -6 6 0 7 19 4 21 -5 23
-7 9 -10z m-255 -1075 c-13 -13 -26 -3 -16 12 3 6 11 8 17 5 6 -4 6 -10 -1
-17z"/>
<path d="M1235 2770 c-4 -6 -16 -8 -28 -4 -22 6 -22 6 -2 -10 12 -9 15 -15 7
-16 -22 0 -2 -20 21 -21 17 -1 18 -2 5 -6 -10 -2 -18 -9 -18 -14 0 -11 90 0
108 14 14 11 16 31 2 22 -5 -3 -10 3 -10 14 0 27 -16 27 -23 1 -7 -27 -25 -26
-29 2 -3 24 -23 35 -33 18z"/>
<path d="M1475 2760 c3 -5 13 -10 21 -10 8 0 12 5 9 10 -3 6 -13 10 -21 10 -8
0 -12 -4 -9 -10z"/>
<path d="M3970 2760 c0 -5 7 -10 15 -10 8 0 15 5 15 10 0 6 -7 10 -15 10 -8 0
-15 -4 -15 -10z"/>
<path d="M1366 2741 c-4 -6 -2 -11 4 -11 6 0 8 -4 5 -10 -3 -5 -1 -19 5 -30
11 -21 12 -21 32 5 16 20 18 29 9 38 -9 9 -14 9 -20 -2 -7 -11 -11 -10 -18 4
-7 12 -13 14 -17 6z"/>
<path d="M2615 2741 c-10 -9 -4 -21 10 -21 8 0 15 -4 15 -10 0 -5 9 -10 20
-10 22 0 49 39 28 41 -41 4 -69 4 -73 0z"/>
<path d="M620 2728 c-25 -6 -57 -19 -72 -29 -14 -10 -35 -19 -46 -19 -12 0
-23 -4 -26 -8 -8 -13 12 -84 26 -93 9 -6 2 -9 -19 -9 -17 0 -33 5 -35 12 -3 7
-14 9 -32 4 -17 -4 -26 -12 -23 -20 3 -8 1 -18 -5 -24 -8 -8 -5 -14 13 -20 13
-5 30 -7 37 -5 6 3 12 1 12 -3 0 -20 -18 -35 -44 -38 -40 -4 -75 -36 -78 -71
-2 -23 1 -30 14 -29 14 1 15 -2 8 -16 -11 -20 5 -40 32 -40 17 0 17 -2 3 -23
-8 -13 -35 -34 -60 -46 -25 -12 -45 -24 -45 -25 0 -2 12 -1 28 2 30 6 150 78
142 86 -6 6 59 56 72 56 4 0 8 -5 8 -11 0 -5 -4 -8 -9 -5 -10 6 -47 -31 -39
-39 8 -8 58 13 58 25 0 5 7 10 15 10 8 0 15 -4 15 -10 0 -5 16 -20 35 -32 20
-13 38 -33 41 -45 4 -14 14 -23 24 -23 26 0 35 -19 18 -36 -13 -13 -15 -13
-15 0 0 8 4 13 9 10 4 -3 8 0 8 5 0 6 -7 11 -15 11 -10 0 -14 -8 -11 -22 2
-14 10 -22 20 -22 12 1 16 -8 16 -42 0 -24 4 -44 9 -44 5 0 7 -15 6 -32 -2
-20 3 -41 13 -52 16 -18 16 -18 -5 -7 -26 13 -31 0 -8 -19 21 -17 19 -60 -5
-122 -23 -60 -24 -87 -9 -156 7 -37 16 -52 35 -60 14 -7 24 -20 24 -32 0 -12
7 -34 15 -51 9 -16 13 -33 10 -38 -2 -5 2 -11 10 -15 8 -3 15 -12 15 -19 0 -8
10 -22 21 -33 22 -19 22 -19 12 1 -56 114 -63 135 -43 135 6 0 10 -6 10 -14 0
-7 11 -30 25 -50 13 -20 22 -36 19 -36 -3 0 7 -12 21 -27 23 -25 30 -43 26
-67 -5 -25 88 -76 139 -76 15 0 33 -7 40 -15 7 -8 27 -17 46 -21 22 -4 42 -18
60 -41 28 -37 76 -62 82 -44 6 19 30 12 36 -11 10 -41 6 -60 -20 -90 -14 -17
-24 -40 -23 -52 1 -12 -2 -30 -6 -40 -6 -13 -3 -22 7 -30 8 -6 29 -38 47 -71
21 -41 44 -68 70 -84 53 -32 52 -19 37 -381 -2 -47 -1 -77 1 -68 3 10 9 18 13
18 14 0 6 -66 -9 -84 -10 -12 -11 -16 -1 -16 7 0 10 -7 6 -15 -3 -8 -1 -15 5
-15 6 0 7 -5 4 -10 -4 -6 1 -23 11 -38 10 -15 19 -30 20 -34 1 -5 3 -11 4 -15
1 -5 2 -11 1 -15 0 -4 7 -7 17 -5 9 1 17 -2 17 -6 0 -15 31 -26 53 -20 27 7
28 20 3 28 -10 3 -25 19 -31 36 -11 26 -10 36 4 66 16 33 16 36 -1 48 -17 13
-17 14 1 34 11 12 16 21 12 21 -4 0 -2 9 4 20 7 14 7 20 0 20 -5 0 -10 5 -10
10 0 6 9 10 20 10 13 0 20 7 20 19 0 12 9 20 29 24 33 7 45 30 30 59 -9 17 -8
19 9 14 21 -7 52 16 52 38 0 7 11 25 25 40 15 16 25 39 25 56 0 22 8 33 36 49
19 12 41 21 49 21 20 0 35 33 42 93 4 36 15 63 35 89 52 66 29 92 -124 140
-57 18 -81 22 -90 14 -7 -6 -5 -2 4 9 16 20 16 23 -2 52 -14 24 -29 34 -57 39
-36 7 -100 49 -96 64 1 4 -20 7 -47 6 -28 -1 -50 2 -50 7 0 5 -14 7 -30 3 -19
-3 -29 -2 -25 4 16 25 -44 -5 -63 -32 -11 -15 -17 -16 -28 -7 -7 6 -25 9 -38
5 -33 -8 -50 15 -43 58 6 37 -4 46 -49 46 -24 0 -32 18 -15 35 5 6 12 20 16
33 5 18 2 22 -14 22 -11 0 -28 -11 -36 -24 -23 -35 -61 -39 -85 -8 -22 27 -25
59 -10 112 7 27 18 39 42 48 18 6 43 9 56 6 13 -4 22 -2 22 5 0 6 11 11 24 11
40 0 76 -18 76 -38 0 -10 7 -27 15 -38 16 -21 18 -15 15 49 -2 42 16 69 62 93
22 11 26 19 21 45 -3 19 -1 29 5 25 6 -3 20 7 32 24 12 16 28 30 36 30 8 0 18
10 23 23 6 14 26 30 52 40 24 10 38 12 31 5 -23 -23 -11 -25 33 -5 25 12 45
25 45 30 0 5 -7 4 -15 -3 -26 -21 -48 -4 -41 31 6 30 5 31 -25 27 l-31 -5 23
18 c15 11 33 15 55 12 39 -6 114 24 114 47 0 8 -16 30 -35 49 -19 18 -33 37
-30 42 3 5 1 27 -5 49 l-11 41 -21 -26 c-16 -21 -23 -23 -35 -14 -8 7 -12 22
-9 33 7 28 -25 65 -63 72 -24 5 -31 3 -32 -10 -1 -9 -2 -24 -3 -33 -1 -10 -6
-25 -11 -33 -5 -8 -8 -29 -6 -47 2 -27 -2 -35 -23 -44 -20 -10 -26 -19 -26
-45 0 -39 -18 -54 -36 -30 -8 12 -9 27 -4 47 7 24 6 29 -8 29 -10 0 -33 14
-51 31 -18 16 -39 28 -46 25 -8 -3 -10 4 -7 20 2 14 0 24 -7 24 -21 0 -11 30
25 70 20 22 40 38 44 35 4 -3 10 2 14 10 3 8 12 15 20 15 8 0 27 15 43 33 17
19 35 31 46 29 23 -5 47 15 47 38 0 10 5 20 11 22 13 4 1 38 -15 38 -6 0 -22
-16 -36 -34 -28 -38 -43 -38 -34 1 5 18 3 24 -5 19 -12 -8 -15 8 -11 69 2 43
16 68 40 73 8 2 21 9 29 17 11 11 10 15 -10 25 -20 11 -25 10 -41 -10 -10 -12
-18 -29 -18 -37 0 -7 -11 -25 -25 -39 -24 -24 -34 -64 -16 -64 17 0 -1 -39
-26 -56 -14 -9 -22 -11 -19 -5 11 17 -3 34 -18 22 -16 -13 -42 -8 -66 11 -22
20 -60 13 -61 -11 0 -11 -3 -10 -9 6 -6 14 -15 20 -27 17 -10 -2 -25 0 -33 6
-13 9 -13 11 0 20 13 9 13 12 -4 21 -10 6 -27 20 -38 31 -11 11 -26 17 -35 14
-11 -5 -14 -2 -9 10 5 14 4 15 -9 4 -12 -10 -15 -9 -15 6 0 15 -8 20 -38 21
-29 2 -34 1 -22 -8 12 -9 11 -10 -5 -4 -23 7 -25 8 -42 6 -7 -1 -10 -8 -6 -18
6 -19 -7 -5 -52 51 -11 14 -23 25 -28 26 -16 1 -77 46 -77 58 0 11 -13 16 -32
13 -4 0 -5 6 -2 14 4 8 5 15 3 14 -2 -1 -24 -6 -49 -11z m140 -764 c0 -8 -4
-14 -8 -14 -4 0 -8 9 -8 19 0 11 4 17 8 15 4 -3 8 -12 8 -20z"/>
<path d="M1450 2736 c0 -3 7 -12 16 -21 14 -14 15 -20 4 -40 -13 -24 -6 -50
11 -40 5 4 9 2 9 -3 0 -14 82 -22 98 -10 22 19 7 33 -39 38 -36 4 -44 9 -44
26 0 22 -26 54 -44 54 -6 0 -11 -2 -11 -4z"/>
<path d="M2590 2723 c0 -7 -10 -12 -21 -10 -32 3 -33 -16 -5 -50 14 -17 23
-33 20 -36 -4 -3 1 -14 10 -23 20 -19 19 -21 33 35 10 41 9 46 -13 70 -13 14
-24 20 -24 14z m10 -57 c0 -3 -4 -8 -10 -11 -5 -3 -10 -1 -10 4 0 6 5 11 10
11 6 0 10 -2 10 -4z"/>
<path d="M1073 2680 c-18 -21 -33 -46 -33 -54 0 -22 33 -20 55 4 10 11 25 20
33 20 9 0 6 -7 -9 -20 -21 -17 -22 -21 -9 -30 13 -8 13 -10 -2 -10 -28 0 -21
-17 12 -29 40 -14 38 -21 -5 -14 -28 5 -35 2 -35 -11 0 -9 6 -19 14 -22 9 -3
12 -12 9 -21 -5 -14 1 -15 45 -9 31 4 53 3 57 -4 9 -14 45 -12 42 3 -1 6 4 11
11 10 15 -4 15 2 1 28 -12 24 5 88 29 105 12 9 13 12 2 19 -9 5 -15 4 -18 -3
-2 -7 -9 -12 -16 -12 -7 0 -18 -15 -24 -32 -9 -25 -10 -27 -7 -6 4 22 2 25
-15 21 -16 -4 -19 -2 -13 13 5 13 3 16 -9 12 -11 -5 -14 -1 -11 17 5 25 -30
65 -56 65 -9 0 -31 -18 -48 -40z"/>
<path d="M1420 2664 c0 -17 22 -14 28 4 2 7 -3 12 -12 12 -9 0 -16 -7 -16 -16z"/>
<path d="M2647 2646 c3 -16 10 -23 19 -19 10 4 11 10 3 24 -14 27 -27 24 -22
-5z"/>
<path d="M3112 2650 c-7 -11 -19 -20 -27 -20 -22 0 -47 -46 -51 -93 -2 -23 -6
-52 -9 -64 -3 -13 -1 -23 6 -23 6 0 17 -7 25 -15 9 -8 22 -15 30 -15 11 0 10
7 -7 29 -17 24 -20 37 -14 67 7 40 36 88 69 115 11 9 16 21 12 27 -10 17 -19
15 -34 -8z"/>
<path d="M1352 2629 c-13 -5 -21 -13 -17 -18 3 -5 1 -12 -5 -16 -5 -3 -10 -1
-10 6 0 9 -3 10 -10 3 -16 -16 11 -60 33 -56 9 2 18 9 19 15 2 22 5 32 13 50
10 23 5 27 -23 16z"/>
<path d="M1454 2566 c-35 -35 -43 -56 -21 -56 8 0 7 -3 -3 -10 -13 -8 -12 -11
5 -24 29 -22 85 -32 95 -16 5 9 9 9 14 1 4 -6 4 -11 1 -11 -4 0 3 -15 14 -34
26 -42 26 -61 1 -79 -11 -8 -17 -17 -13 -20 6 -7 -1 -9 -39 -11 -26 -1 -22
-20 4 -24 27 -5 50 -21 43 -32 -6 -9 44 -44 52 -36 3 3 0 12 -7 21 -15 18 1
20 18 3 21 -21 33 4 16 36 -9 18 -11 33 -5 39 6 6 13 1 20 -12 l12 -21 21 20
22 20 -33 34 c-31 32 -32 35 -14 45 14 8 14 11 3 11 -13 0 -13 1 0 10 11 7 11
10 2 10 -7 0 -10 5 -7 10 3 6 -1 13 -9 16 -9 3 -16 12 -16 20 0 8 -5 13 -12
12 -7 -2 -13 3 -14 10 -1 6 -2 17 -3 22 0 6 -14 10 -30 10 -25 0 -28 3 -23 25
9 49 -51 22 -68 -30 -10 -30 -10 -30 -5 5 3 19 12 40 20 46 18 13 19 24 4 24
-6 0 -26 -15 -45 -34z"/>
<path d="M1560 2560 c0 -13 7 -20 20 -20 11 0 20 4 20 10 0 5 -9 14 -20 20
-17 9 -20 8 -20 -10z"/>
<path d="M302 2506 c7 -8 15 -12 17 -11 5 6 -10 25 -20 25 -5 0 -4 -6 3 -14z"/>
<path d="M1294 2476 c-13 -15 -7 -36 12 -36 15 0 18 18 6 36 -5 9 -10 9 -18 0z"/>
<path d="M1160 2470 c0 -13 11 -13 30 0 12 8 11 10 -7 10 -13 0 -23 -4 -23
-10z"/>
<path d="M1525 2381 c-6 -11 9 -23 19 -14 9 9 7 23 -3 23 -6 0 -12 -4 -16 -9z"/>
<path d="M3005 2370 c3 -5 8 -10 11 -10 2 0 4 5 4 10 0 6 -5 10 -11 10 -5 0
-7 -4 -4 -10z"/>
<path d="M1383 2307 c-12 -25 -1 -59 11 -38 4 6 19 9 34 5 15 -3 23 -2 17 3
-5 4 -15 17 -21 27 -15 29 -29 30 -41 3z"/>
<path d="M420 2270 c-8 -5 -12 -11 -9 -14 2 -3 11 -1 19 4 8 5 12 11 9 14 -2
3 -11 1 -19 -4z"/>
<path d="M2154 2258 c-5 -7 -3 -8 6 -3 10 6 12 4 7 -8 -7 -19 17 -47 41 -47
27 0 62 29 62 51 0 14 -7 19 -28 19 -15 0 -33 -5 -40 -12 -9 -9 -12 -9 -12 0
0 15 -27 16 -36 0z"/>
<path d="M1395 2240 c-3 -6 1 -7 9 -4 18 7 21 14 7 14 -6 0 -13 -4 -16 -10z"/>
<path d="M662 2100 c0 -14 2 -19 5 -12 2 6 2 18 0 25 -3 6 -5 1 -5 -13z"/>
<path d="M2377 2073 c-12 -12 -7 -51 8 -67 12 -12 13 -24 6 -55 -10 -44 -4
-48 46 -35 20 6 40 44 23 44 -14 0 -52 70 -46 85 3 9 -1 15 -10 15 -8 0 -12 5
-9 10 7 11 -8 14 -18 3z"/>
<path d="M2334 1997 c-14 -17 -24 -56 -15 -62 14 -8 40 19 47 48 7 29 -11 37
-32 14z"/>
<path d="M1661 1918 l-20 -33 24 -3 c16 -2 23 -8 18 -15 -4 -8 -1 -7 9 1 13
10 17 10 21 0 3 -7 5 -2 4 12 -1 14 -10 28 -19 32 -11 4 -15 13 -12 23 10 26
-3 17 -25 -17z"/>
<path d="M4437 1900 c3 -11 1 -26 -5 -33 -8 -9 -8 -17 0 -27 8 -12 9 -11 4 4
-5 15 -2 17 13 13 12 -3 27 3 37 14 15 17 13 23 -8 21 -3 -1 -12 5 -18 13 -18
21 -29 18 -23 -5z"/>
<path d="M4440 1781 c0 -28 -5 -44 -15 -47 -8 -4 -15 -12 -15 -20 0 -8 -10
-14 -22 -14 -29 -1 -59 -40 -51 -69 8 -30 25 -26 21 6 -2 16 2 28 11 31 8 2
11 0 8 -5 -4 -6 4 -8 18 -5 14 2 25 11 25 19 0 8 3 12 8 10 4 -3 16 -1 27 3
18 7 20 14 15 66 -6 69 -30 88 -30 25z"/>
<path d="M2560 1720 c0 -11 5 -20 10 -20 6 0 10 9 10 20 0 11 -4 20 -10 20 -5
0 -10 -9 -10 -20z"/>
<path d="M2788 1633 c7 -3 16 -2 19 1 4 3 -2 6 -13 5 -11 0 -14 -3 -6 -6z"/>
<path d="M4220 1464 c0 -14 4 -23 10 -19 6 3 10 15 10 26 0 10 -4 19 -10 19
-5 0 -10 -12 -10 -26z"/>
<path d="M1250 1441 c0 -5 11 -12 24 -15 14 -3 32 -13 40 -22 9 -8 24 -14 34
-12 13 3 9 8 -15 21 -50 26 -83 37 -83 28z"/>
<path d="M4055 1391 c-10 -17 12 -21 25 -6 10 12 10 15 -3 15 -9 0 -18 -4 -22
-9z"/>
<path d="M1383 1374 c0 -11 7 -14 21 -10 12 3 28 6 36 6 13 0 13 1 0 10 -24
15 -57 12 -57 -6z"/>
<path d="M4228 1358 c-2 -13 1 -37 8 -53 7 -17 13 -24 14 -16 0 8 7 11 20 8
11 -3 18 -1 14 4 -3 5 -12 9 -20 9 -10 0 -13 10 -12 31 3 37 -17 51 -24 17z"/>
<path d="M4303 1265 c0 -8 4 -12 9 -9 5 3 6 10 3 15 -9 13 -12 11 -12 -6z"/>
<path d="M4260 1260 c0 -5 5 -10 10 -10 6 0 10 5 10 10 0 6 -4 10 -10 10 -5 0
-10 -4 -10 -10z"/>
<path d="M3640 1208 c0 -16 4 -28 9 -28 18 0 20 17 6 36 -14 18 -14 18 -15 -8z"/>
<path d="M3910 1221 c0 -5 7 -14 15 -21 8 -6 17 -22 21 -33 7 -25 33 -57 46
-57 18 0 -6 55 -38 87 -34 34 -44 39 -44 24z"/>
<path d="M4305 1220 c-4 -6 -10 -8 -15 -5 -5 3 -11 1 -15 -5 -3 -5 0 -10 8
-10 8 0 18 -8 21 -17 6 -15 8 -15 16 -3 6 8 10 23 10 33 0 19 -15 23 -25 7z"/>
<path d="M4151 1153 c-19 -19 -45 -39 -57 -43 -20 -8 -22 -12 -11 -39 8 -22
20 -32 49 -39 36 -9 38 -9 57 27 11 22 17 48 14 63 -3 14 0 29 6 32 8 5 7 12
-3 22 -18 17 -14 19 -55 -23z"/>
<path d="M3899 1133 c16 -21 38 -54 49 -73 17 -33 65 -70 75 -60 11 11 11 55
0 55 -13 0 -28 13 -28 25 0 9 -105 90 -118 90 -4 0 5 -17 22 -37z"/>
<path d="M4350 1099 c0 -5 5 -7 10 -4 6 3 10 8 10 11 0 2 -4 4 -10 4 -5 0 -10
-5 -10 -11z"/>
<path d="M4237 1093 c-11 -20 -14 -60 -7 -78 8 -18 9 -18 9 4 1 24 1 24 16 5
15 -19 16 -19 13 1 -1 11 1 26 6 34 7 10 4 12 -13 6 -15 -4 -21 -2 -21 9 0 10
12 16 38 19 l37 4 -37 1 c-20 1 -39 -1 -41 -5z"/>
<path d="M4410 1070 c-9 -6 -6 -10 10 -15 18 -6 20 -9 9 -16 -8 -5 -12 -9 -9
-10 47 -8 90 -27 90 -39 0 -5 0 -13 -1 -16 0 -4 14 -14 31 -22 29 -14 33 -14
42 1 12 22 23 21 45 -2 10 -10 29 -22 43 -26 25 -7 25 -7 -4 24 -17 17 -26 31
-21 31 22 0 -40 43 -90 62 -54 20 -56 20 -76 2 -19 -17 -20 -17 -25 3 -7 25
-25 35 -44 23z"/>
<path d="M4368 1033 c7 -3 16 -2 19 1 4 3 -2 6 -13 5 -11 0 -14 -3 -6 -6z"/>
<path d="M4704 1011 c-5 -5 -18 -11 -29 -14 -15 -4 -14 -5 7 -6 15 0 30 4 33
10 9 14 1 21 -11 10z"/>
<path d="M4030 981 c0 -6 3 -11 8 -11 4 -1 26 -5 50 -9 33 -7 42 -5 42 5 0 9
-11 14 -27 14 -16 0 -38 3 -50 6 -14 4 -23 2 -23 -5z"/>
<path d="M4300 940 c-8 -5 -10 -10 -5 -10 6 0 17 5 25 10 8 5 11 10 5 10 -5 0
-17 -5 -25 -10z"/>
<path d="M4420 899 c0 -5 -6 -9 -14 -9 -8 0 -22 -10 -30 -22 -13 -17 -18 -19
-30 -9 -13 11 -21 8 -46 -17 -16 -17 -30 -27 -30 -24 -1 4 -7 -4 -14 -16 -8
-15 -33 -31 -65 -42 -29 -9 -57 -22 -63 -28 -10 -10 -13 -65 -8 -137 2 -22 0
-50 -4 -63 -9 -27 17 -41 45 -24 10 7 30 12 44 12 14 0 36 6 48 14 71 45 160
22 147 -39 -1 -5 10 1 25 15 18 17 26 20 24 10 -1 -8 2 -34 6 -58 8 -44 34
-69 60 -58 8 3 16 0 18 -7 3 -9 8 -9 18 1 7 6 20 12 29 12 9 0 24 18 34 41 10
23 27 50 38 61 22 22 48 89 48 124 0 14 -11 42 -25 64 -14 22 -25 43 -25 47 0
5 -9 14 -20 21 -14 8 -20 23 -20 47 0 22 -6 38 -15 41 -8 4 -15 14 -15 24 0
39 -19 28 -25 -13 -10 -66 -17 -73 -51 -51 -38 24 -44 35 -34 54 7 12 2 19
-21 27 -16 6 -29 7 -29 2z"/>
<path d="M3163 880 c-7 -10 -25 -25 -40 -32 -18 -9 -27 -21 -26 -33 2 -11 -2
-29 -8 -41 -18 -35 -8 -69 20 -69 21 0 28 10 55 88 19 56 27 90 20 97 -6 6
-14 3 -21 -10z"/>
<path d="M4886 737 c3 -10 9 -15 12 -12 3 3 0 11 -7 18 -10 9 -11 8 -5 -6z"/>
<path d="M4957 416 c3 -19 2 -43 -2 -53 -5 -10 -9 -31 -10 -47 l-3 -28 36 36
35 37 -21 15 c-12 8 -22 26 -22 39 0 13 -4 26 -9 30 -6 3 -8 -9 -4 -29z"/>
<path d="M4500 322 c0 -38 13 -47 34 -26 17 17 21 44 7 44 -5 0 -16 3 -25 6
-12 5 -16 -1 -16 -24z"/>
<path d="M4873 275 c-17 -16 -45 -40 -62 -53 -34 -26 -38 -37 -16 -46 22 -8
40 2 55 30 7 13 18 24 23 24 12 0 46 42 47 57 0 23 -15 19 -47 -12z"/>
</g>
</svg>
